PathFileType	4	(X/Y/Z)	OpenSim_Sub09_EMGBaseline_Gyro.trc
DataRate	CameraRate	NumFrames	NumMarkers	Units	OrigDataRate	OrigDataStartFrame	OrigNumFrames
100	100	23	8	m	100	6389	7301
Frame#	Time	torso_imu_offset_imu	pelvis_imu_offset_imu	tibia_r_imu_offset_imu	femur_r_imu_offset_imu	tibia_l_imu_offset_imu	femur_l_imu_offset_imu	toes_r_imu_offset_imu	toes_l_imu_offset_imu
				X1	Y1	Z1	X2	Y2	Z2	X3	Y3	Z3	X4	Y4	Z4	X5	Y5	Z5	X6	Y6	Z6	X7	Y7	Z7	X8		Y8	Z8	

6389	63.88000000	-0.19693800	0.38589700	-0.04112500	-0.06593600	-0.22685300	-0.30271600	-0.42242400	-0.32145900	-2.21838400	0.10441600	0.61241200	0.22598900	-0.01894500	-0.28836100	1.53237800	0.82639500	-0.89303400	0.52282100	-0.27429600	-3.21726200	-0.73965100	-0.13003100	-2.17233800	0.51364800
6390	63.89000000	-0.14351800	0.37668700	-0.03053900	0.04857800	-0.22463100	-0.21683700	-0.46012400	-0.42143600	-2.32333000	-0.01304000	0.70638600	0.39712400	-0.45145200	-0.29385600	1.78147200	1.35848700	-0.35105400	0.19394000	-0.18468500	-3.69343300	-0.87036400	-0.02598000	-2.12381500	0.34700500
6391	63.90000000	-0.08630500	0.35904100	-0.01338800	0.11706600	-0.23125200	-0.09991400	-0.49815400	-0.49995800	-2.41181600	-0.15945000	0.83900100	0.59742100	-0.81830600	-0.31571100	1.76828200	1.70821000	-0.15341200	-0.11325500	-0.03810300	-4.25021900	-1.01837200	0.00770000	-2.02120100	0.31188600
6392	63.91000000	-0.04405500	0.34437200	-0.00030700	0.15373100	-0.22022700	0.00137200	-0.47171900	-0.53503000	-2.46880800	-0.29971200	1.05239600	0.79474900	-1.60456600	-0.06379900	1.72881300	1.52740900	-0.39049000	-0.23206700	-0.04204100	-4.82438200	-1.13422000	-0.37753600	-0.89986900	0.30694100
6393	63.92000000	-0.03109200	0.31489300	0.02505400	0.13183400	-0.16666400	0.06210800	-0.41518600	-0.49352900	-2.53312400	-0.33535700	1.19955300	0.97488400	-2.56592000	0.23861000	1.75056200	0.98777200	-0.51877500	-0.16422700	-0.18774200	-5.33055400	-1.18030100	-0.42634100	-0.82179700	0.32166600
6394	63.93000000	-0.05630600	0.27615600	0.04061500	0.03273300	-0.14627900	0.09619100	-0.34345000	-0.39587000	-2.58678300	-0.28833500	1.24426700	1.14997500	-3.09589000	0.31726400	1.76911100	0.62407200	-0.40164100	-0.02738100	-0.15286600	-5.65156300	-1.19937100	-0.58321300	-0.71447800	0.27366400
6395	63.94000000	-0.10182700	0.24749000	0.04488500	-0.11198700	-0.11435600	0.12979300	-0.25333300	-0.18411000	-2.59976600	-0.20745700	1.20193800	1.31993500	-3.13077000	0.23954800	1.53570300	0.50284300	-0.43530200	0.15301000	-0.73851600	-5.58750700	-1.20124900	-0.61091000	-0.49632000	0.25938900
6396	63.95000000	-0.14889500	0.21129900	0.03959200	-0.25847100	-0.02949800	0.13380800	-0.12937500	-0.07149600	-2.59428000	-0.11822200	1.02006200	1.47391100	-2.67448600	-0.21324400	1.20597300	0.35289300	-0.42993200	0.33512700	-0.81548900	-5.30750300	-1.46232700	-0.46256500	-0.26601900	0.18854100
6397	63.96000000	-0.19241400	0.17194700	0.03268900	-0.39276700	0.03348300	0.09765600	0.10319500	-0.21332600	-2.54181500	-0.08384100	0.82780900	1.59026300	-1.85238600	-0.80497800	1.05906300	0.27208700	-0.39141200	0.54168300	-0.04654300	-5.04766900	-1.98043000	-0.41938200	-0.16875700	0.17416700
6398	63.97000000	-0.22100700	0.10964200	0.02632600	-0.48235900	0.09234800	0.03216900	0.67346400	-0.39023000	-2.40018200	-0.19999200	0.72113800	1.69081900	-0.83134400	-1.09993300	1.00890800	0.23117200	-0.37758100	0.76647900	0.26223400	-5.03330100	-2.39139500	-0.36840900	-0.07192400	0.15349900
6399	63.98000000	-0.24834800	0.05918400	0.01997400	-0.54905400	0.13238500	-0.02721600	1.38248500	-0.45265500	-2.17746400	-0.37897700	0.69814000	1.80572800	0.06547000	-1.14282000	0.80971400	0.23378100	-0.40127100	0.98971600	0.08989700	-4.90253800	-2.64925100	-0.34534700	-0.01592600	0.17721100
6400	63.99000000	-0.25077900	0.02747300	-0.00781500	-0.58863700	0.15772400	-0.06982300	1.82376500	-0.46588800	-1.93862900	-0.53490800	0.68541500	1.86813600	0.83216900	-0.93084500	0.52939400	0.24951200	-0.41118700	1.13130500	-0.20982300	-4.67947800	-2.80996600	-0.33003400	-0.00285200	0.19319800
6401	64	-0.23947300	0.01260400	-0.03987400	-0.60712300	0.15438300	-0.08359300	2.18674100	-0.51736500	-1.72117000	-0.63139100	0.62348600	1.84299800	1.25324100	-0.50152400	0.46234700	0.23326900	-0.40682100	1.19185600	-0.46804900	-4.26260000	-2.93991900	-0.31003400	0.02542500	0.18771600
6402	64.01000000	-0.22412300	0.00235100	-0.06584100	-0.61458400	0.14134700	-0.06349600	2.51820000	-0.60922800	-1.49565500	-0.66533200	0.54424100	1.76997800	1.57263500	-0.34555000	0.55993500	0.13871200	-0.37269300	1.20531700	-0.51789800	-3.25983000	-2.73675900	-0.24543700	0.02678500	0.14985600
6403	64.02000000	-0.22408000	0.00124800	-0.10901300	-0.61415400	0.12607500	-0.02268500	2.45074700	-0.67754300	-1.23770100	-0.65028700	0.49821900	1.69633900	1.89668800	-0.34066200	0.64208900	0.01310800	-0.31670800	1.17034700	-0.58328500	-2.73118100	-2.33724500	-0.19414300	0.00619400	0.11647900
6404	64.03000000	-0.24125000	0.00618800	-0.12716700	-0.57540500	0.09133200	0.02136500	1.66342800	-0.52259500	-1.00610500	-0.62020600	0.47186900	1.69781300	1.51243600	-0.34089100	0.75454300	-0.08509000	-0.26218000	1.07878400	-1.18769500	-1.05269900	-1.35588600	-0.15203400	0.01353800	0.08877100
6405	64.04000000	-0.24237700	-0.00750800	-0.14603000	-0.48730800	0.05593200	0.07814000	1.08564400	-0.27904900	-0.87646400	-0.52994400	0.42708000	1.70408000	0.42905600	-0.17291200	0.88255700	-0.19000200	-0.23520200	0.94436200	-1.31907100	1.32182000	-0.73149500	-0.14215300	0.02654000	0.06814900
6406	64.05000000	-0.24814600	-0.02132800	-0.16070000	-0.40209300	0.04093400	0.16828500	0.33845900	-0.33146000	-0.72664500	-0.41018600	0.35595800	1.64727400	-0.67080200	-0.03504100	0.89409600	-0.32153600	-0.21690700	0.83437600	-1.08779200	2.33739000	-0.37590900	-0.11244800	0.01822500	0.04617300
6407	64.06000000	-0.24187400	-0.04568100	-0.17332800	-0.34003700	0.03576200	0.27181400	-0.74025700	-0.75283300	-0.43698400	-0.29925000	0.32253200	1.54139000	-1.30592000	-0.21974300	0.68921800	-0.42529800	-0.19277300	0.81260600	-0.52824100	2.37839100	-0.12714900	-0.05934400	0.01126100	0.01894500
6408	64.07000000	-0.25203400	-0.06305000	-0.17291900	-0.30683500	0.05304500	0.36474500	-1.42999800	-1.11756800	0.04686400	-0.20930600	0.30775600	1.50074100	-1.31514500	-0.37150800	0.45924900	-0.48344900	-0.16213300	0.84285400	0.35913500	1.97940600	-0.01247900	-0.05823100	-0.01096100	0.02618500
6409	64.08000000	-0.25378100	-0.07888300	-0.18147200	-0.26476600	0.07348200	0.43457500	-1.65532900	-1.12304300	0.67525000	-0.11794600	0.26564000	1.52896000	-0.93602600	-0.39021900	0.33388100	-0.43678100	-0.13540200	0.86274300	0.30654000	1.96128200	0.15558500	-0.06561800	0.00296900	0.03941900
6410	64.09000000	-0.25314200	-0.08653100	-0.17692300	-0.23108900	0.08597600	0.48271700	-1.79747700	-0.83491700	1.34755900	-0.03911800	0.20891800	1.58555900	-0.47854400	-0.37029200	0.35695600	-0.30539600	-0.12980300	0.84720000	0.03363600	2.18025000	0.52082400	-0.07048400	0.00308900	0.05312400
6411	64.10000000	-0.25910500	-0.08329700	-0.16604400	-0.21863400	0.09669400	0.50790900	-1.95632900	-0.51457700	1.91559700	0.01109800	0.20370500	1.60875900	-0.08313700	-0.33417500	0.45459700	-0.13520300	-0.14798700	0.80959800	-0.42071600	2.52807800	0.97365600	-0.07892300	0.02262300	0.05813300
